<?xml version="1.0" standalone="no"?>
<!DOCTYPE svg PUBLIC "-//W3C//DTD SVG 20010904//EN"
 "http://www.w3.org/TR/2001/REC-SVG-20010904/DTD/svg10.dtd">
<svg version="1.0" xmlns="http://www.w3.org/2000/svg"
 width="225.000000pt" height="225.000000pt" viewBox="0 0 225.000000 225.000000"
 preserveAspectRatio="xMidYMid meet">

<g transform="translate(0.000000,225.000000) scale(0.100000,-0.100000)"
fill="#000000" stroke="none">
<path d="M1493 2235 c-87 -24 -154 -64 -223 -134 -96 -97 -150 -215 -150 -328
0 -40 2 -43 28 -43 48 0 132 28 189 62 133 80 233 253 233 406 0 58 1 58 -77
37z"/>
<path d="M1445 1695 c-33 -7 -112 -32 -175 -55 -134 -48 -138 -48 -294 10
-132 50 -211 59 -310 36 -214 -50 -381 -231 -432 -466 -22 -97 -22 -279 -1
-396 46 -255 188 -543 351 -709 121 -123 206 -139 376 -69 90 36 100 38 205
38 104 0 115 -2 203 -37 215 -87 331 -36 502 219 68 102 112 184 148 280 l19
51 -51 28 c-67 37 -154 126 -190 194 -40 74 -56 142 -56 237 0 152 64 286 182
384 l58 50 -57 57 c-123 123 -320 184 -478 148z"/>
</g>
</svg>
