<svg xmlns="http://www.w3.org/2000/svg" version="1.1" xmlns:xlink="http://www.w3.org/1999/xlink" width="40.66" height="48.15"><svg id="SvgjsSvg1020" data-name="Layer 1" xmlns="http://www.w3.org/2000/svg" viewBox="0 0 40.66 48.15"><defs><style>.cls-1{fill:#1d1d1b;}.cls-2,.cls-3{fill:#fff;}.cls-3{font-size:33.92px;font-family:Arial-BoldMT, Arial;font-weight:700;}</style></defs><rect class="cls-1" width="40.66" height="48.15" rx="3.22"></rect><path class="cls-2" d="M3.87,43.94a15.17,15.17,0,0,0,1.88-1.07A17,17,0,0,0,7.4,41.62a13.79,13.79,0,0,0,1.33-1.31,8.62,8.62,0,0,0,.92-1.21h.64v1.06a8.42,8.42,0,0,1-1,1.21A16.37,16.37,0,0,1,8,42.68a19.47,19.47,0,0,1-1.57,1.24,13,13,0,0,1-1.69,1Zm.54-5.87c.18,0,.38,0,.61.06l.64,0H13l.62,0,.54-.06v1.31l-.56,0H5q-.33,0-.63,0Zm6.87-2.13c0,.18,0,.37,0,.57a3.51,3.51,0,0,0,0,.56c0,.29,0,.62,0,1s0,.82,0,1.29,0,1,0,1.46l0,1.51c0,.5,0,1,0,1.46s0,.91,0,1.31a1.1,1.1,0,0,1-.31.83,1.34,1.34,0,0,1-1,.3l-1,0-1-.05-.1-1.28.9.1.81,0a.46.46,0,0,0,.36-.12.58.58,0,0,0,.1-.38c0-.29,0-.64,0-1s0-.83,0-1.29,0-.93,0-1.41,0-1,0-1.4,0-.89,0-1.28,0-.73,0-1a6,6,0,0,0,0-.65c0-.18,0-.34-.07-.48Z"></path><path class="cls-2" d="M15.11,38.43a1.31,1.31,0,0,0,.28,0l.46,0,.56,0h8.21l.77,0,.48,0v1.32l-.47,0H15.86l-.46,0-.29,0ZM19,36.1c0,.08,0,.21,0,.39a5.28,5.28,0,0,0,0,.61v4.51c0,.17,0,.33,0,.5s0,.31,0,.44a1.65,1.65,0,0,0,0,.27H17.57c0-.06,0-.15,0-.27s0-.27,0-.44,0-.33,0-.5V37.1c0-.16,0-.33,0-.5a3.8,3.8,0,0,0-.06-.5Zm4.49,4.06a12.9,12.9,0,0,1-.16,2.17,5.86,5.86,0,0,1-.56,1.7,4.46,4.46,0,0,1-1.11,1.35,7.88,7.88,0,0,1-1.81,1.09l-1.06-1a8,8,0,0,0,1.52-.72,3.6,3.6,0,0,0,1.07-1A3.66,3.66,0,0,0,22,42.33a8.92,8.92,0,0,0,.21-2.09V37.08c0-.24,0-.46,0-.66s0-.33,0-.42h1.41c0,.09,0,.23-.05.42s0,.42,0,.66Z"></path><path class="cls-2" d="M37.38,37.92l-.2.22-.17.22a14.79,14.79,0,0,1-.85,1.27c-.34.46-.71.92-1.12,1.39a17.46,17.46,0,0,1-1.34,1.39,11.75,11.75,0,0,1-1.5,1.24l-1-.88a13.38,13.38,0,0,0,1.31-1.05c.41-.38.79-.77,1.14-1.16s.66-.78.93-1.14a9.74,9.74,0,0,0,.63-1h-7l-.52,0-.48,0-.35,0v-1.4l.4.05.48,0h7.67a3.32,3.32,0,0,0,1-.11Zm-6.17,5.93-.66-.61c-.24-.23-.5-.46-.77-.69s-.52-.44-.76-.64a6.78,6.78,0,0,0-.62-.47l1-.84c.16.11.35.26.58.44l.75.62c.27.22.54.46.81.7l.75.68.84.85.84.88c.26.29.49.55.67.78l-1.15.92c-.16-.22-.38-.49-.63-.79l-.83-.93Z"></path><text class="cls-3" transform="translate(5.25 30.01) scale(0.7 1)">PF</text></svg><style>@media (prefers-color-scheme: light) { :root { filter: none; } }
@media (prefers-color-scheme: dark) { :root { filter: none; } }
</style></svg>