<svg id="Layer_1" data-name="Layer 1" xmlns="http://www.w3.org/2000/svg" viewBox="0 0 48.15 48.15"><defs><style>.cls-1{fill:#1d1d1b;}.cls-2,.cls-3{fill:#fff;}.cls-3{font-size:32.34px;font-family:Arial-BoldMT, Arial;font-weight:700;}</style></defs><rect class="cls-1" width="48.15" height="48.15" rx="3.22"/><path class="cls-2" d="M8.14,41.29a15,15,0,0,0,1.79-1,16.7,16.7,0,0,0,1.58-1.19,13.51,13.51,0,0,0,1.26-1.24,8.46,8.46,0,0,0,.88-1.16h.61v1a8.92,8.92,0,0,1-.91,1.16c-.38.41-.8.82-1.26,1.24s-1,.81-1.5,1.19a14.21,14.21,0,0,1-1.61,1Zm.52-5.59.58.06.61,0h7l.6,0,.51,0v1.24H9.25a5.68,5.68,0,0,0-.59,0Zm6.55-2c0,.18,0,.36-.05.55a3.25,3.25,0,0,0,0,.54c0,.27,0,.59,0,1s0,.78,0,1.23,0,.91,0,1.39,0,1,0,1.44,0,.94,0,1.39,0,.87,0,1.25a1,1,0,0,1-.3.79,1.25,1.25,0,0,1-.9.28l-1,0-1-.05L12,42.19c.28,0,.57.07.86.09s.56,0,.77,0A.4.4,0,0,0,14,42.2a.53.53,0,0,0,.1-.36c0-.28,0-.62,0-1s0-.79,0-1.23,0-.88,0-1.34,0-.9,0-1.34,0-.84,0-1.22,0-.69,0-1,0-.45,0-.62,0-.33-.07-.47Z"/><path class="cls-2" d="M18.86,36a1.09,1.09,0,0,0,.26,0l.44,0,.53,0h7.84c.29,0,.53,0,.73,0l.45,0v1.25l-.44,0H19.14l-.28,0Zm3.67-2.22c0,.08,0,.2,0,.37a4.85,4.85,0,0,0,0,.58v4.3c0,.16,0,.32,0,.48s0,.29,0,.41,0,.21,0,.26H21.2s0-.14,0-.26,0-.25,0-.41,0-.31,0-.48v-4.3c0-.15,0-.31,0-.48s0-.32,0-.47Zm4.28,3.87a11.76,11.76,0,0,1-.16,2.07,5.41,5.41,0,0,1-.53,1.62,4.3,4.3,0,0,1-1.06,1.29,7.82,7.82,0,0,1-1.72,1l-1-1a8.92,8.92,0,0,0,1.45-.69,3.51,3.51,0,0,0,1.62-2.31,8.75,8.75,0,0,0,.2-2v-3c0-.24,0-.45,0-.63s0-.32,0-.41h1.34c0,.09,0,.23,0,.41a5.78,5.78,0,0,0,0,.63Z"/><path class="cls-2" d="M40.08,35.55l-.18.22-.16.2a12.38,12.38,0,0,1-.82,1.21c-.32.44-.67.88-1.07,1.33a15.81,15.81,0,0,1-1.27,1.33A13.37,13.37,0,0,1,35.15,41l-.94-.84a12.38,12.38,0,0,0,1.26-1c.39-.36.75-.73,1.08-1.1s.63-.74.88-1.08a7.69,7.69,0,0,0,.61-.94H31.36l-.49,0-.45,0-.34,0V34.79l.38.05.46,0h7.31a3,3,0,0,0,.91-.11ZM34.2,41.21l-.62-.59L32.85,40l-.73-.61c-.23-.19-.43-.34-.59-.45l1-.8a5.82,5.82,0,0,1,.55.42l.72.59.77.66.72.66c.25.25.52.52.79.81s.55.56.8.83.47.53.64.75l-1.09.88c-.16-.22-.36-.47-.61-.76s-.51-.58-.79-.89Z"/><text class="cls-3" transform="translate(9.96 28.9) scale(0.7 1)">PF</text></svg>